HIERARCHY
ROOT pelvis
{
	OFFSET 0.000000 0.000000 0.937925
	CHANNELS 6 Xposition Yposition Zposition Xrotation Yrotation Zrotation
	JOINT spine
	{
		OFFSET 0.000000 0.000000 0.000000
		CHANNELS 6 Xposition Yposition Zposition Xrotation Yrotation Zrotation
		JOINT spine.001
		{
			OFFSET 0.000000 -0.015966 0.304644
			CHANNELS 3 Xrotation Yrotation Zrotation
			JOINT neck
			{
				OFFSET 0.000000 0.037178 0.302788
				CHANNELS 6 Xposition Yposition Zposition Xrotation Yrotation Zrotation
				JOINT face
				{
					OFFSET 0.000000 0.004173 0.239085
					CHANNELS 6 Xposition Yposition Zposition Xrotation Yrotation Zrotation
					End Site
					{
						OFFSET 0.000000 -0.033637 -0.009393
					}
				}
			}
			JOINT shoulder.L
			{
				OFFSET 0.000000 0.037178 0.302788
				CHANNELS 6 Xposition Yposition Zposition Yrotation Xrotation Zrotation
				JOINT upper_arm.L
				{
					OFFSET 0.190409 0.000000 0.000000
					CHANNELS 6 Xposition Yposition Zposition Xrotation Yrotation Zrotation
					JOINT forearm.L
					{
						OFFSET 0.324777 0.000140 0.001157
						CHANNELS 6 Xposition Yposition Zposition Xrotation Yrotation Zrotation
						End Site
						{
							OFFSET 0.267200 -0.004536 -0.001591
						}
					}
				}
			}
			JOINT shoulder.R
			{
				OFFSET 0.000000 0.037178 0.302788
				CHANNELS 6 Xposition Yposition Zposition Yrotation Xrotation Zrotation
				JOINT upper_arm.R
				{
					OFFSET -0.190409 0.000000 0.000000
					CHANNELS 6 Xposition Yposition Zposition Xrotation Yrotation Zrotation
					JOINT forearm.R
					{
						OFFSET -0.316622 0.000140 0.001157
						CHANNELS 6 Xposition Yposition Zposition Xrotation Yrotation Zrotation
						End Site
						{
							OFFSET -0.281049 -0.004778 -0.001593
						}
					}
				}
			}
		}
	}
	JOINT pelvis.L
	{
		OFFSET 0.000000 0.000000 0.000000
		CHANNELS 6 Xposition Yposition Zposition Yrotation Xrotation Zrotation
		End Site
		{
			OFFSET 0.115127 0.000000 0.000000
		}
	}
	JOINT pelvis.R
	{
		OFFSET 0.000000 0.000000 0.000000
		CHANNELS 6 Xposition Yposition Zposition Yrotation Xrotation Zrotation
		End Site
		{
			OFFSET -0.115127 0.000000 0.000000
		}
	}
	JOINT thigh.L
	{
		OFFSET 0.115127 0.000000 0.000000
		CHANNELS 6 Xposition Yposition Zposition Xrotation Yrotation Zrotation
		JOINT shin.L
		{
			OFFSET 0.022519 0.000000 -0.429682
			CHANNELS 6 Xposition Yposition Zposition Xrotation Yrotation Zrotation
			JOINT foot.L
			{
				OFFSET 0.022219 0.000000 -0.423959
				CHANNELS 3 Xrotation Yrotation Zrotation
				End Site
				{
					OFFSET 0.018503 -0.188658 -0.079221
				}
			}
			JOINT heel.02.L
			{
				OFFSET 0.022219 0.000000 -0.423959
				CHANNELS 3 Xrotation Yrotation Zrotation
				End Site
				{
					OFFSET 0.101695 0.041604 -0.077896
				}
			}
		}
	}
	JOINT thigh.R
	{
		OFFSET -0.115127 0.000000 0.000000
		CHANNELS 6 Xposition Yposition Zposition Xrotation Yrotation Zrotation
		JOINT shin.R
		{
			OFFSET -0.022063 0.000000 -0.420980
			CHANNELS 6 Xposition Yposition Zposition Xrotation Yrotation Zrotation
			JOINT foot.R
			{
				OFFSET -0.022750 0.000000 -0.434104
				CHANNELS 3 Xrotation Yrotation Zrotation
				End Site
				{
					OFFSET -0.019477 -0.198591 -0.083392
				}
			}
			JOINT heel.02.R
			{
				OFFSET -0.022750 0.000000 -0.434104
				CHANNELS 3 Xrotation Yrotation Zrotation
				End Site
				{
					OFFSET -0.100823 0.041604 -0.076495
				}
			}
		}
	}
}
MOTION
Frames: 4
Frame Time: 0.041667
0.036857 -0.031417 0.915600 -0.000000 0.000000 -1.866488 0.000000 0.000000 0.000000 -10.721374 0.094967 0.013957 9.989499 0.382910 3.120093 -0.000000 0.037178 0.302788 20.256142 3.633375 8.215752 0.000000 0.004173 0.239085 1.868808 -0.000001 0.000002 0.000000 0.037178 0.302789 0.548583 0.000325 -0.067386 0.190409 0.000000 0.000000 15.730832 81.023153 -18.397306 0.324777 0.000140 0.001157 1.423114 9.553520 -16.084049 0.000000 0.037178 0.302789 0.602641 0.000390 -0.074041 -0.190409 0.000000 0.000000 11.722339 -82.054901 13.493706 -0.316622 0.000140 0.001157 0.554484 -6.098920 9.426499 0.000000 0.000000 0.000000 0.850968 -0.000000 -0.000020 0.000000 0.000000 0.000000 0.850968 -0.000000 0.000000 0.115114 -0.000000 -0.001710 3.407167 6.089617 -0.002681 0.022519 -0.000000 -0.429682 7.045248 -5.283814 0.693503 -9.918525 -1.506513 0.937982 -16.814275 47.783013 35.313065 -0.115114 0.000000 0.001710 3.802545 -1.101607 -0.162868 -0.022063 -0.000000 -0.420980 5.039819 3.666937 -0.425015 -8.847584 2.887528 -3.850137 -16.833409 -48.321276 -38.717778 
0.038875 -0.033618 0.916551 -0.000000 0.000000 -1.522996 0.000000 0.000000 -0.000000 -10.906771 -0.080794 -0.012008 9.991536 0.343418 2.798008 -0.000000 0.037178 0.302789 20.345050 3.879924 7.672918 0.000000 0.004173 0.239086 2.316456 0.000000 -0.000001 0.000000 0.037178 0.302789 0.968058 0.001004 -0.118884 0.190409 0.000000 -0.000000 17.228951 80.074611 -20.466022 0.324777 0.000140 0.001157 1.416038 10.401377 -14.444390 0.000000 0.037178 0.302789 1.022152 0.001120 -0.125522 -0.190409 0.000000 0.000000 5.988467 -81.973062 6.933445 -0.316622 0.000140 0.001157 0.703370 -6.784780 10.907656 0.000000 0.000000 -0.000000 1.014823 -0.000000 -0.000024 0.000000 0.000000 -0.000000 1.014853 -0.000000 0.000000 0.115108 0.000000 -0.002039 3.915040 6.355606 -0.012225 0.022519 -0.000000 -0.429682 6.273790 -5.393840 0.623402 -10.307482 -1.829968 1.460127 -17.611081 48.431717 36.122200 -0.115108 -0.000000 0.002039 4.144925 -0.838273 -0.187057 -0.022063 -0.000000 -0.420980 4.921449 3.493720 -0.407614 -9.140908 2.916932 -3.822995 -18.088299 -48.884535 -38.489492 
0.040231 -0.035532 0.917289 -0.000000 0.000000 -1.221579 0.000000 0.000000 0.000000 -11.073153 -0.199100 -0.029886 9.993308 0.306505 2.497088 0.000000 0.037178 0.302789 20.428560 4.080358 7.393465 0.000000 0.004173 0.239085 2.639299 -0.000001 -0.000004 0.000000 0.037178 0.302789 1.286145 0.001774 -0.157902 0.190409 0.000000 -0.000000 17.531188 79.419309 -21.057688 0.324777 0.000140 0.001157 1.413491 10.883328 -13.647314 0.000000 0.037178 0.302788 1.340203 0.001927 -0.164573 -0.190409 0.000000 0.000000 1.958875 -81.915791 2.304665 -0.316622 0.000140 0.001157 0.815642 -7.257044 11.912348 0.000000 -0.000000 0.000000 1.023724 0.000001 -0.000059 0.000000 -0.000000 0.000000 1.023753 -0.000000 0.000000 0.115108 -0.000000 -0.002057 4.322755 6.498948 -0.018944 0.022519 -0.000000 -0.429682 5.654250 -5.428671 0.563446 -10.563002 -1.990582 1.701177 -18.212156 48.904756 36.736439 -0.115108 -0.000000 0.002057 4.418701 -0.694475 -0.204961 -0.022063 -0.000000 -0.420980 4.842876 3.406455 -0.397427 -9.282433 2.987787 -3.918199 -18.918354 -49.229794 -38.239398 
0.040865 -0.037049 0.917773 -0.000000 0.000000 -0.962663 -0.000000 0.000000 0.000000 -11.204104 -0.253172 -0.038298 9.994649 0.273570 2.228672 -0.000000 0.037178 0.302788 20.485090 4.212241 7.296121 0.000000 0.004173 0.239085 2.822767 0.000000 -0.000000 -0.000000 0.037178 0.302788 1.473343 0.002327 -0.180981 0.190409 0.000000 -0.000000 16.832306 79.111868 -20.333012 0.324777 0.000140 0.001157 1.435189 10.973848 -13.747282 -0.000000 0.037178 0.302788 1.527436 0.002499 -0.187583 -0.190409 0.000000 0.000000 0.016374 -81.942736 0.069129 -0.316622 0.000140 0.001157 0.862063 -7.404746 12.385665 0.000000 -0.000000 0.000000 0.880191 -0.000000 0.000011 0.000000 -0.000000 0.000000 0.880190 -0.000000 0.000000 0.115113 -0.000000 -0.001768 4.623067 6.524130 -0.021285 0.022519 0.000000 -0.429682 5.193721 -5.417684 0.516995 -10.663981 -1.981856 1.661148 -18.456141 49.101687 37.020954 -0.115113 -0.000000 0.001768 4.634080 -0.669197 -0.215983 -0.022063 0.000000 -0.420980 4.761532 3.408299 -0.390819 -9.225593 3.104273 -4.157187 -19.291910 -49.357317 -38.011109 
